<?xml version="1.0" standalone="no"?>
<!DOCTYPE svg PUBLIC "-//W3C//DTD SVG 20010904//EN"
 "http://www.w3.org/TR/2001/REC-SVG-20010904/DTD/svg10.dtd">
<svg version="1.0" xmlns="http://www.w3.org/2000/svg"
 width="68.000000pt" height="65.000000pt" viewBox="0 0 68.000000 65.000000"
 preserveAspectRatio="xMidYMid meet">

<g transform="translate(0.000000,65.000000) scale(0.100000,-0.100000)"
fill="#000000" stroke="none">
<path d="M233 632 c-96 -34 -152 -84 -204 -182 -23 -42 -24 -56 -27 -248 l-3
-202 341 0 341 0 -3 202 -3 203 -34 63 c-59 109 -160 172 -286 179 -50 3 -85
-2 -122 -15z m211 -161 c4 -5 -3 -31 -15 -58 -24 -55 -22 -76 14 -155 l27 -58
-70 0 c-71 0 -87 10 -49 30 20 11 20 12 -5 35 l-26 24 -25 -23 c-28 -26 -31
-36 -11 -36 8 0 16 -7 20 -15 4 -12 -4 -15 -44 -15 l-49 0 36 83 c44 98 52
108 123 158 59 41 66 44 74 30z m64 -313 c3 -17 -10 -18 -167 -18 -136 0 -171
3 -171 13 0 8 3 17 7 21 4 3 79 5 167 4 144 -3 161 -5 164 -20z"/>
<path d="M334 369 c-10 -17 13 -36 27 -22 12 12 4 33 -11 33 -5 0 -12 -5 -16
-11z"/>
</g>
</svg>
