<?xml version="1.0" standalone="no"?>
<!DOCTYPE svg PUBLIC "-//W3C//DTD SVG 20010904//EN"
 "http://www.w3.org/TR/2001/REC-SVG-20010904/DTD/svg10.dtd">
<svg version="1.0" xmlns="http://www.w3.org/2000/svg"
 width="68.000000pt" height="65.000000pt" viewBox="0 0 68.000000 65.000000"
 preserveAspectRatio="xMidYMid meet">

<g transform="translate(0.000000,65.000000) scale(0.100000,-0.100000)"
fill="#000000" stroke="none">
<path d="M233 632 c-96 -34 -152 -84 -204 -182 -23 -42 -24 -56 -27 -248 l-3
-202 341 0 341 0 -3 202 -3 203 -34 63 c-59 109 -160 172 -286 179 -50 3 -85
-2 -122 -15z m-53 -196 c0 -29 36 -82 73 -110 39 -29 125 -29 164 0 37 28 73
81 73 110 0 19 5 24 26 24 24 0 25 -2 19 -32 -17 -82 -81 -150 -154 -164 -25
-5 -30 -11 -25 -23 27 -64 28 -70 15 -85 -17 -21 -55 -21 -72 0 -13 15 -12 21
15 85 6 13 -1 18 -26 23 -71 14 -136 84 -153 164 -6 30 -5 32 19 32 21 0 26
-5 26 -24z"/>
</g>
</svg>
