<?xml version="1.0" standalone="no"?>
<!DOCTYPE svg PUBLIC "-//W3C//DTD SVG 20010904//EN"
 "http://www.w3.org/TR/2001/REC-SVG-20010904/DTD/svg10.dtd">
<svg version="1.0" xmlns="http://www.w3.org/2000/svg"
 width="68.000000pt" height="65.000000pt" viewBox="0 0 68.000000 65.000000"
 preserveAspectRatio="xMidYMid meet">

<g transform="translate(0.000000,65.000000) scale(0.100000,-0.100000)"
fill="#000000" stroke="none">
<path d="M238 637 c-106 -40 -184 -112 -218 -204 -17 -47 -20 -78 -20 -243 l0
-190 341 0 340 0 -3 203 c-3 197 -4 203 -31 258 -32 67 -100 132 -165 162 -59
26 -190 34 -244 14z m165 -141 c15 -22 13 -26 -25 -80 -22 -31 -41 -56 -43
-56 -2 0 -21 25 -43 56 -38 54 -40 58 -25 80 13 20 24 24 68 24 44 0 55 -4 68
-24z m-141 -122 c-32 -22 -52 -67 -52 -115 0 -33 6 -47 33 -74 19 -19 46 -37
60 -41 77 -19 157 41 157 117 0 47 -21 91 -52 113 -20 14 -21 17 -7 31 14 14
18 14 41 -4 60 -47 77 -159 35 -222 -30 -44 -92 -79 -142 -79 -50 0 -112 35
-142 79 -45 66 -24 181 40 226 19 13 23 13 36 0 14 -13 13 -17 -7 -31z"/>
</g>
</svg>
